<svg fill="#111111" width="100%" height="100%" version="1.1" viewbox="0 0 100 100" xmlns="http://www.w3.org/2000/svg" id="1832432960" class="svg u_1832432960" data-icon-custom="true"> <title id="1410717112">39. Financial aid compliance solutions for colleges and universities</title> 
 <g> <path d="m75.828 9.8672c-9.8984 0-17.922 8.0234-17.922 17.922 0 9.8984 8.0234 17.922 17.922 17.922s17.922-8.0234 17.922-17.922c0-9.8945-8.0234-17.922-17.922-17.922zm5.6328 20.016-5.8945 4.1641c-1.6953 1.1953-4.0391-0.015625-4.0391-2.0898l0.003906-8.3281c0-2.0742 2.3398-3.2891 4.0391-2.0898l5.8945 4.1641c1.4414 1.0195 1.4414 3.1602-0.003906 4.1797z"></path> 
 <path d="m60.988 87.316h-8.6172l-0.003906-6.1602h-18.691v6.1641h-8.6172c-1.5547 0-2.8125 1.2578-2.8125 2.8125 0 1.5547 1.2578 2.8125 2.8125 2.8125h35.93c1.5547 0 2.8125-1.2578 2.8125-2.8125 0-1.5547-1.2617-2.8164-2.8125-2.8164z"></path> 
 <path d="m75.828 51.336c-12.984 0-23.547-10.562-23.547-23.547 0-1.7656 0.21094-3.4805 0.58203-5.1367h-38.738c-4.3438 0.003906-7.875 3.5352-7.875 7.8789v37.125c0 4.3438 3.5312 7.875 7.875 7.875h57.812c4.3438 0 7.875-3.5312 7.875-7.875v-16.68c-1.2969 0.21875-2.6211 0.35938-3.9844 0.35938zm-19.27 11.52c-0.49609 0.88672-1.4336 1.4375-2.4531 1.4375h-22.059c-1.0195 0-1.957-0.55078-2.457-1.4375-0.49609-0.89062-0.47656-1.9766 0.058594-2.8477 1.5234-2.4805 4.2812-4.3789 7.6016-5.418-2.4688-1.8047-4.0938-4.6992-4.0938-7.9922 0-5.4766 4.4414-9.9141 9.9141-9.9141 5.4766 0 9.9141 4.4414 9.9141 9.9141 0 3.293-1.6211 6.1875-4.0938 7.9922 3.3242 1.0391 6.082 2.9375 7.6016 5.418 0.54297 0.875 0.5625 1.9609 0.066406 2.8477z"></path> 
</g> 
</svg>